<svg width="94" height="84" viewBox="0 0 94 84" fill="none" xmlns="http://www.w3.org/2000/svg">
<g clip-path="url(#clip0_16_3)">
<path d="M64.8147 29.7706C64.911 29.3231 64.9881 28.8409 64.9881 28.3245C64.9881 23.3148 59.9807 19.2346 53.8369 19.2346C51.1599 19.2346 48.5021 20.1127 46.5184 21.5759C44.4578 20.0782 41.8385 19.2346 39.1229 19.2346C36.2147 19.2346 33.4607 20.1471 31.3998 21.8341C29.2814 23.5556 28.1258 25.8625 28.1258 28.3245C28.1258 28.9788 28.2029 29.6157 28.3377 30.2011C25.2754 31.8537 23.3688 34.6944 23.3688 37.7931C23.3688 39.4457 23.8119 40.9264 24.7363 42.2864C23.8504 43.6292 23.3688 45.1786 23.3688 46.7453C23.3688 49.8614 25.1215 52.633 28.1644 54.3545C28.1258 54.8193 28.1258 55.267 28.1258 55.6973C28.1258 58.1591 29.3006 60.4661 31.3998 62.1877C33.4605 63.8576 36.1954 64.7872 39.1229 64.7872C41.8385 64.7872 44.4385 63.9436 46.5184 62.4459C48.5213 63.9264 51.1599 64.7872 53.8369 64.7872C59.9807 64.7872 64.9881 60.7072 64.9881 55.7145C64.9881 55.4047 64.9688 55.0947 64.9303 54.8021C68.4932 53.2183 70.7851 50.1366 70.7851 46.7623C70.7851 45.1958 70.3035 43.6635 69.4176 42.3035C70.342 40.9435 70.7851 39.463 70.7851 37.8102C70.7853 34.3844 68.4164 31.2683 64.8147 29.7706ZM65.6045 43.3536C66.4903 44.3349 66.9526 45.5056 66.9526 46.7451C66.9526 49.0865 65.0268 51.2384 62.1764 52.0821C61.252 52.3575 60.6934 53.2011 60.886 54.0619C61.0016 54.6473 61.1364 55.2154 61.1364 55.6973C61.1364 58.8134 57.8624 61.3441 53.8371 61.3441C51.6031 61.3441 49.3305 60.4144 48.0594 58.9683C47.7127 58.5724 47.1735 58.3313 46.5957 58.3141C46.5764 58.3141 46.5764 58.3141 46.5572 58.3141C45.9985 58.3141 45.4594 58.5206 45.1319 58.9511C43.6489 60.4833 41.4727 61.3785 39.1616 61.3785C35.2134 61.3785 32.0164 58.8478 32.0164 55.7318C32.0164 55.1121 32.0164 54.475 32.1705 54.1308C32.5558 53.2872 32.132 52.323 31.2076 51.9271C28.7424 50.877 27.2594 48.9488 27.2594 46.7625C27.2594 45.523 27.7217 44.3523 28.6076 43.371C29.1855 42.734 29.1855 41.8389 28.6076 41.2018C27.6832 40.1861 27.2594 39.1015 27.2594 37.8103C27.2594 35.6239 28.8773 33.6096 31.4002 32.6973C31.8818 32.5252 32.2668 32.1809 32.4595 31.7504C32.6521 31.3199 32.6521 30.838 32.4402 30.4077C32.132 29.7878 31.9972 29.1337 31.9972 28.3245C31.9972 25.2084 35.2134 22.6778 39.1423 22.6778C41.4342 22.6778 43.6104 23.5558 45.1127 25.1052C45.4979 25.5011 46.0371 25.725 46.6149 25.7076C47.1928 25.6904 47.7127 25.4494 48.0787 25.0533C49.3691 23.6073 51.6224 22.6776 53.8564 22.6776C57.8816 22.6776 61.1557 25.2083 61.1557 28.3243C61.1557 28.9614 60.9245 29.5639 60.6548 30.2698C60.5007 30.7173 60.5393 31.2167 60.7897 31.6298C61.0401 32.0429 61.4637 32.3529 61.9837 32.4734C64.9112 33.1793 66.9526 35.3655 66.9526 37.7931C66.9526 39.0843 66.5289 40.1517 65.6045 41.1846C65.0266 41.8215 65.0266 42.7167 65.6045 43.3536Z" fill="#FF4B65"/>
<path d="M50.4281 39.0328L46.3066 40.2723L48.8488 33.8681C49.1955 32.9729 48.6754 31.9743 47.674 31.6645C46.6725 31.3547 45.5555 31.8194 45.2088 32.7147L41.3377 42.4587C41.0872 43.0958 41.2606 43.7843 41.7807 44.249C42.3008 44.731 43.0711 44.8861 43.7643 44.6794L47.8666 43.4398L45.1895 50.1024C44.8236 50.9976 45.3436 51.9789 46.3451 52.306C46.557 52.3748 46.7881 52.4093 46.9998 52.4093C47.7894 52.4093 48.5213 51.9617 48.8488 51.2558L52.8548 41.2534C53.1052 40.6336 52.9318 39.9278 52.4118 39.4629C51.8919 38.9811 51.1216 38.8262 50.4281 39.0328Z" fill="#FF4B65"/>
<path d="M43.8416 9.90376C44.4194 10.3341 45.209 10.4202 45.883 10.1275L46.1334 10.0243L45.1319 13.3985C44.8623 14.311 45.4787 15.2579 46.4994 15.4989C46.6727 15.5333 46.8268 15.5505 47.0002 15.5505C47.8475 15.5505 48.6373 15.0341 48.8297 14.2594L50.9097 7.28703C51.1023 6.63276 50.8519 5.94423 50.2742 5.51373C49.6965 5.08323 48.8875 4.99734 48.2135 5.28997L47.9053 5.42767L48.8297 2.13944C49.0994 1.22697 48.483 0.297296 47.443 0.0563125C46.4223 -0.184671 45.3823 0.366147 45.1127 1.29583L43.1868 8.14769C43.0133 8.80196 43.2637 9.47343 43.8416 9.90376Z" fill="#FF4B65"/>
<path d="M10.2918 11.8493L13.7392 13.7945C13.1038 14.0183 12.6415 14.5521 12.5451 15.1717C12.4488 15.8432 12.7956 16.4973 13.431 16.8588L20.268 20.6806C20.5954 20.8528 20.942 20.9388 21.2887 20.9388C21.9241 20.9388 22.5598 20.6462 22.9258 20.1296C23.4844 19.3205 23.2147 18.2531 22.3096 17.7539L19.0548 15.929C19.6903 15.7052 20.1333 15.1886 20.2296 14.569C20.326 13.8975 19.9792 13.2434 19.3438 12.8819L12.3527 8.93957C11.4476 8.42318 10.2728 8.66417 9.6949 9.47318C9.11703 10.2825 9.38671 11.3327 10.2918 11.8493Z" fill="#FF4B65"/>
<path d="M20.2874 63.3412L13.2964 67.2835C12.6417 67.645 12.3142 68.2992 12.4105 68.9706C12.5068 69.5904 12.9691 70.1068 13.6238 70.3306L10.3304 72.1212C9.42523 72.6032 9.1363 73.6706 9.69491 74.4798C10.0416 75.0134 10.6771 75.3062 11.332 75.3062C11.6595 75.3062 12.006 75.2373 12.3527 75.0824L19.3438 71.2606C19.9985 70.9163 20.3452 70.2448 20.2489 69.5735C20.1526 68.9193 19.652 68.3684 18.9585 68.1619L22.3481 66.2509C23.2532 65.7345 23.5229 64.6843 22.9451 63.8751C22.3674 63.0658 21.1926 62.8248 20.2874 63.3412Z" fill="#FF4B65"/>
<path d="M50.274 73.963C49.6961 73.5326 48.8873 73.4466 48.2133 73.7392L47.9051 73.8769L48.8295 70.5887C49.0992 69.6762 48.4828 68.7465 47.4428 68.5055C46.4221 68.2645 45.3821 68.8154 45.1125 69.745L43.1866 76.5969C43.0133 77.2512 43.2637 77.9225 43.8413 78.353C44.4192 78.7833 45.2088 78.8694 45.8828 78.5768L46.1332 78.4735L45.1317 81.8478C44.8621 82.7602 45.4785 83.7071 46.4992 83.9481C46.6725 83.9826 46.8266 83.9998 47 83.9998C47.8473 83.9998 48.6371 83.4834 48.8295 82.7086L50.9095 75.7363C51.1023 75.082 50.8519 74.3935 50.274 73.963Z" fill="#FF4B65"/>
<path d="M72.8652 20.9389C73.2119 20.9389 73.5777 20.8528 73.8859 20.6634L80.7229 16.8416C81.3583 16.4974 81.7051 15.8259 81.6087 15.1546C81.5124 14.5003 81.0118 13.9667 80.3184 13.7601L83.708 11.8663C84.6131 11.3499 84.8828 10.2998 84.3049 9.49058C83.727 8.68139 82.5522 8.45762 81.6471 8.95697L74.656 12.8993C74.0013 13.2608 73.6738 13.915 73.7701 14.5864C73.8857 15.2234 74.3671 15.757 75.0413 15.9636L71.8443 17.7539C70.9392 18.2531 70.6695 19.3205 71.2279 20.1297C71.5941 20.6462 72.2295 20.9389 72.8652 20.9389Z" fill="#FF4B65"/>
<path d="M83.6889 72.121L80.492 70.3307C81.166 70.1241 81.6668 69.5903 81.7631 68.9535C81.8594 68.282 81.5127 67.6279 80.8772 67.2664L73.8861 63.3241C72.981 62.8077 71.8062 63.0487 71.2283 63.8577C70.6504 64.6667 70.9201 65.7171 71.8254 66.2334L75.215 68.1444C74.5218 68.351 74.021 68.8848 73.9247 69.5389C73.8283 70.2104 74.1751 70.8645 74.8105 71.2259L81.6475 75.0478C81.975 75.2199 82.3215 75.306 82.6682 75.306C83.323 75.306 83.9394 75.0305 84.3053 74.4968C84.8638 73.6876 84.5941 72.6202 83.6889 72.121Z" fill="#FF4B65"/>
</g>
<defs>
<clipPath id="clip0_16_3">
<rect width="94" height="84" fill="white"/>
</clipPath>
</defs>
</svg>
