<svg width="91" height="88" viewBox="0 0 91 88" fill="none" xmlns="http://www.w3.org/2000/svg">
<path d="M45.5 0C20.3711 0 0 19.6994 0 44C0 62.8098 12.2053 78.8627 29.375 85.157L88.5501 29.7199C82.4181 12.4289 65.4601 0 45.5 0Z" fill="#096C80"/>
<path d="M90.9997 44.0001C90.9997 39.0015 90.136 34.1984 88.5481 29.7206L68.4476 10.2827L47.2753 23.7888L37.4507 14.2881L17.5447 73.7121L29.3768 85.1542C34.3887 86.9915 39.822 88.0001 45.4998 88.0001C70.6286 88.0001 90.9997 68.3005 90.9997 44.0001Z" fill="#064855"/>
<path d="M24.5306 11.4783H27.498L36.4002 44L27.498 76.5218H24.5306C19.0904 76.5218 14.6393 72.2174 14.6393 66.9565V21.0435C14.6393 15.7826 19.0904 11.4783 24.5306 11.4783Z" fill="#4DE1FF"/>
<path d="M30.4653 11.4783H27.4979V76.5218H30.4653C35.9055 76.5218 40.3566 72.2174 40.3566 66.9565V21.0435C40.3566 15.7826 35.9055 11.4783 30.4653 11.4783Z" fill="#2DB8D4"/>
<path d="M20.5739 32.5219C20.5739 34.635 22.3453 36.348 24.5304 36.348H27.4978L29.4761 32.5219L27.4978 28.6958H24.5304C22.3453 28.6958 20.5739 30.4087 20.5739 32.5219Z" fill="white"/>
<path d="M30.4653 28.6958H27.4979V36.348H30.4653C32.6505 36.348 34.4218 34.635 34.4218 32.5219C34.4218 30.4087 32.6505 28.6958 30.4653 28.6958Z" fill="#FF1909"/>
<path d="M20.5739 44.0002C20.5739 46.1133 22.3453 47.8262 24.5304 47.8262H27.4978L29.4761 44.0002L27.4978 40.1741H24.5304C22.3453 40.1741 20.5739 41.887 20.5739 44.0002Z" fill="white"/>
<path d="M30.4653 40.1741H27.4979V47.8262H30.4653C32.6505 47.8262 34.4218 46.1133 34.4218 44.0002C34.4218 41.887 32.6505 40.1741 30.4653 40.1741Z" fill="#FF1909"/>
<path d="M20.5739 55.4782C20.5739 57.5913 22.3453 59.3043 24.5304 59.3043H27.4978L29.4761 55.4782L27.4978 51.6521H24.5304C22.3453 51.6521 20.5739 53.365 20.5739 55.4782Z" fill="white"/>
<path d="M30.4653 51.6521H27.4979V59.3043H30.4653C32.6505 59.3043 34.4218 57.5913 34.4218 55.4782C34.4218 53.365 32.6505 51.6521 30.4653 51.6521Z" fill="#FF1909"/>
<path d="M20.5739 66.9565C20.5739 69.0696 22.3453 70.7825 24.5304 70.7825H27.4978L29.4761 66.9565L27.4978 63.1304H24.5304C22.3453 63.1304 20.5739 64.8433 20.5739 66.9565Z" fill="white"/>
<path d="M30.4653 63.1304H27.4979V70.7825H30.4653C32.6505 70.7825 34.4218 69.0696 34.4218 66.9565C34.4218 64.8433 32.6505 63.1304 30.4653 63.1304Z" fill="#FF1909"/>
<path d="M20.5739 21.0434C20.5739 23.1565 22.3453 24.8694 24.5304 24.8694H27.4978L29.4761 21.0434L27.4978 17.2173H24.5304C22.3453 17.2173 20.5739 18.9302 20.5739 21.0434Z" fill="white"/>
<path d="M30.4653 17.2173H27.4979V24.8694H30.4653C32.6505 24.8694 34.4218 23.1565 34.4218 21.0434C34.4218 18.9302 32.6505 17.2173 30.4653 17.2173Z" fill="#FF1909"/>
<path d="M66.4695 24.8696H48.2695V30.0349H66.4695V24.8696Z" fill="#AA1106"/>
<path d="M76.3609 36.3479V39.2175L72.4043 51.6523L76.3609 64.0871V66.9566C76.3609 72.2175 71.9098 76.5219 66.4695 76.5219H57.3695L51.4348 50.6958L57.3695 26.7827H66.4695C71.9098 26.7827 76.3609 31.0871 76.3609 36.3479Z" fill="#FF1909"/>
<path d="M57.3695 26.7827V76.5219H48.2695C42.8293 76.5219 38.3782 72.2175 38.3782 66.9566V36.3479C38.3782 31.0871 42.8293 26.7827 48.2695 26.7827H57.3695Z" fill="#FF6E36"/>
<path d="M68.4478 10.2827V24.8697H62.9087L60.9304 16.6197L62.9087 10.2827H68.4478Z" fill="#C4F5FF"/>
<path d="M62.9087 10.2827V24.8697H57.3696L55.3913 16.6197L57.3696 10.2827H62.9087Z" fill="white"/>
<path d="M57.3696 10.2827V24.8697H51.8304L49.8522 16.6197L51.8304 10.2827H57.3696Z" fill="#C4F5FF"/>
<path d="M51.8305 10.2827H46.2913V24.8697H51.8305V10.2827Z" fill="white"/>
<path d="M72.4043 42.0871V66.9567C72.4043 70.1208 69.7416 72.6958 66.4696 72.6958H57.3696L55.3913 40.1741L72.4043 42.0871Z" fill="#AA1106"/>
<path d="M72.4043 36.3475V42.0867H57.3695L53.413 36.3475L57.3695 30.6084H66.4695C69.7416 30.6084 72.4043 33.1834 72.4043 36.3475Z" fill="#550803"/>
<path d="M59.3477 42.0867L57.3695 64.0867V72.6954H48.2695C44.9974 72.6954 42.3347 70.1204 42.3347 66.9563V42.0867H59.3477Z" fill="#FF1909"/>
<path d="M57.3695 30.6084V39.2171L59.3477 42.0867H42.3347V36.3475C42.3347 33.1834 44.9974 30.6084 48.2695 30.6084H57.3695Z" fill="#AA1106"/>
<path d="M76.3609 39.2173H57.3696V64.0868H76.3609V39.2173Z" fill="#C4F5FF"/>
</svg>
